<svg width="1000" height="1000" viewBox="0 0 1000 1000" fill="none" xmlns="http://www.w3.org/2000/svg">
<path d="M940.749 0L860.42 899.895L499.335 1000L139.245 900.036L59 0H940.749Z" fill="#264DE4"/>
<path d="M791.649 842.593L860.296 73.5914H499.875V923.484L791.649 842.593Z" fill="#2965F1"/>
<path d="M242.959 407.402L252.853 517.787H499.875V407.402H242.959Z" fill="#EBEBEB"/>
<path d="M499.875 183.978H499.493H223.08L233.114 294.365H499.875V183.978Z" fill="#EBEBEB"/>
<path d="M499.875 808.933V694.086L499.391 694.215L376.454 661.019L368.595 572.981H308.857H257.785L273.25 746.303L499.367 809.074L499.875 808.933Z" fill="#EBEBEB"/>
<path d="M635.421 517.787L622.608 660.949L499.493 694.178V809.021L725.79 746.303L727.45 727.653L753.39 437.044L756.083 407.402L776.011 183.978H499.493V294.365H655.038L644.994 407.402H499.493V517.787H635.421Z" fill="white"/>
</svg>
