<svg width="1000" height="1000" viewBox="0 0 1000 1000" fill="none" xmlns="http://www.w3.org/2000/svg">
<path d="M954.546 0H45.4545C20.3507 0 0 20.3507 0 45.4545V954.546C0 979.649 20.3507 1000 45.4545 1000H954.546C979.649 1000 1000 979.649 1000 954.546V45.4545C1000 20.3507 979.649 0 954.546 0Z" fill="#3F4F75"/>
<path d="M590.909 454.545C616.013 454.545 636.363 434.195 636.363 409.091C636.363 383.987 616.013 363.636 590.909 363.636C565.805 363.636 545.454 383.987 545.454 409.091C545.454 434.195 565.805 454.545 590.909 454.545Z" fill="#80CFBE"/>
<path d="M772.727 272.727C797.831 272.727 818.182 252.377 818.182 227.273C818.182 202.169 797.831 181.818 772.727 181.818C747.623 181.818 727.272 202.169 727.272 227.273C727.272 252.377 747.623 272.727 772.727 272.727Z" fill="#80CFBE"/>
<path d="M590.909 272.727C616.013 272.727 636.363 252.377 636.363 227.273C636.363 202.169 616.013 181.818 590.909 181.818C565.805 181.818 545.454 202.169 545.454 227.273C545.454 252.377 565.805 272.727 590.909 272.727Z" fill="#80CFBE"/>
<path d="M409.091 272.727C434.195 272.727 454.546 252.377 454.546 227.273C454.546 202.169 434.195 181.818 409.091 181.818C383.987 181.818 363.637 202.169 363.637 227.273C363.637 252.377 383.987 272.727 409.091 272.727Z" fill="#80CFBE"/>
<path d="M227.273 272.727C252.377 272.727 272.727 252.377 272.727 227.273C272.727 202.169 252.377 181.818 227.273 181.818C202.169 181.818 181.818 202.169 181.818 227.273C181.818 252.377 202.169 272.727 227.273 272.727Z" fill="#80CFBE"/>
<path d="M227.273 454.545C252.377 454.545 272.727 434.195 272.727 409.091C272.727 383.987 252.377 363.636 227.273 363.636C202.169 363.636 181.818 383.987 181.818 409.091C181.818 434.195 202.169 454.545 227.273 454.545Z" fill="#80CFBE"/>
<path d="M227.273 545.455C215.218 545.455 203.656 550.244 195.132 558.768C186.607 567.292 181.818 578.854 181.818 590.909V772.727C181.818 784.783 186.607 796.344 195.132 804.868C203.656 813.393 215.218 818.182 227.273 818.182C239.328 818.182 250.89 813.393 259.414 804.868C267.938 796.344 272.727 784.783 272.727 772.727V590.909C272.727 578.854 267.938 567.292 259.414 558.768C250.89 550.244 239.328 545.455 227.273 545.455V545.455Z" fill="white"/>
<path d="M590.909 545.455C578.853 545.455 567.292 550.244 558.768 558.768C550.243 567.292 545.454 578.854 545.454 590.909V772.727C545.454 784.783 550.243 796.344 558.768 804.868C567.292 813.393 578.853 818.182 590.909 818.182C602.964 818.182 614.526 813.393 623.05 804.868C631.574 796.344 636.363 784.783 636.363 772.727V590.909C636.363 578.854 631.574 567.292 623.05 558.768C614.526 550.244 602.964 545.455 590.909 545.455V545.455Z" fill="white"/>
<path d="M409.091 363.636C397.036 363.636 385.475 368.425 376.95 376.95C368.426 385.474 363.637 397.036 363.637 409.091V772.727C363.637 784.783 368.426 796.344 376.95 804.869C385.475 813.393 397.036 818.182 409.091 818.182C421.147 818.182 432.708 813.393 441.233 804.869C449.757 796.344 454.546 784.783 454.546 772.727V409.091C454.546 397.036 449.757 385.474 441.233 376.95C432.708 368.425 421.147 363.636 409.091 363.636V363.636Z" fill="white"/>
<path d="M772.727 363.636C760.672 363.636 749.11 368.425 740.586 376.95C732.061 385.474 727.272 397.036 727.272 409.091V772.727C727.272 784.783 732.061 796.344 740.586 804.869C749.11 813.393 760.672 818.182 772.727 818.182C784.782 818.182 796.344 813.393 804.868 804.869C813.393 796.344 818.182 784.783 818.182 772.727V409.091C818.182 397.036 813.393 385.474 804.868 376.95C796.344 368.425 784.782 363.636 772.727 363.636V363.636Z" fill="white"/>
</svg>
