<svg width="1000" height="1000" viewBox="0 0 1000 1000" fill="none" xmlns="http://www.w3.org/2000/svg">
<path d="M177.083 0H822.917C920.833 0 1000 81.1966 1000 181.624V818.376C1000 918.803 920.833 1000 822.917 1000H177.083C79.1667 1000 0 918.803 0 818.376V181.624C0 81.1966 79.1667 0 177.083 0Z" fill="#00005B"/>
<path d="M779.167 557.833H647.084C648.75 570.75 652.917 583.667 660 594.917C667.5 606.167 677.917 614.917 690.417 619.917C707.084 627 725.417 630.75 743.75 630.333C758.334 629.917 772.917 628.667 787.084 625.75C800 624.083 812.5 620.75 824.167 616.167C826.25 614.5 827.5 615.333 827.5 619.5V683.25C827.5 684.917 827.084 686.583 826.667 688.25C825.834 689.5 825 690.333 823.75 691.167C810.417 697 796.667 701.167 782.084 703.667C762.5 707.417 742.917 709.083 722.917 708.667C691.25 708.667 664.584 703.667 642.917 694.083C622.5 685.333 604.584 671.583 590.417 654.5C577.084 638.25 567.5 619.917 561.667 599.917C555.834 580.333 552.917 559.917 552.917 539.083C552.917 516.583 556.25 494.5 563.334 472.833C570 452 580.417 432.833 594.584 415.75C608.334 399.083 625.417 385.75 645 376.167C664.584 366.583 687.917 363.25 714.584 363.25C736.667 362.833 758.75 367 779.167 376.167C796.25 383.667 811.25 394.917 822.917 409.5C833.75 423.667 842.5 439.5 847.917 457C853.334 473.667 855.834 490.75 855.834 507.833C855.834 517.833 855.417 526.583 855 534.5C854.167 542.417 853.75 548.25 853.334 552C852.917 554.917 850.417 557.417 847.5 557.417C845 557.417 840.417 557.833 833.75 558.25C827.084 559.083 819.167 559.5 809.584 559.5C800 559.5 790 557.833 779.167 557.833V557.833ZM647.084 497H735C745.834 497 753.75 497 758.75 496.583C762.084 496.167 765.417 495.333 768.334 493.25V489.083C768.334 483.667 767.5 478.667 765.834 473.667C758.334 450.333 736.25 434.5 711.667 435.333C688.75 434.083 667.084 446.167 656.25 467C651.25 476.583 648.334 486.583 647.084 497Z" fill="#9999FF"/>
<path d="M401.666 595.333H246.666L215 693.667C214.166 697.417 210.833 699.917 207.083 699.5H128.75C124.166 699.5 122.916 697 124.166 692L258.333 307.417C259.583 303.25 260.833 299.5 262.5 294.5C264.166 285.75 265 276.583 265 267.417C264.583 265.333 266.25 263.25 268.333 262.833H269.583H376.25C379.166 262.833 381.25 264.083 381.666 266.167L533.75 691.167C535 695.75 533.75 697.833 529.583 697.833H442.5C439.583 698.25 436.666 696.167 435.833 693.25L401.666 593.25V595.333ZM270.833 512.417H376.666C374.166 503.667 370.833 493.25 367.083 482.417C363.333 471.167 359.583 459.083 355.833 446.583C351.666 433.667 347.916 421.167 343.75 408.25C339.583 395.333 335.833 383.25 332.5 371.167C329.166 359.5 326.25 348.667 323.333 338.667H322.5C318.75 356.583 314.166 374.5 308.333 392.417C302.083 412.417 295.833 433.25 289.166 454.083C283.75 475.333 277.083 494.917 270.833 512.417V512.417Z" fill="#9999FF"/>
</svg>
