<svg width="1001" height="1001" viewBox="0 0 1001 1001" fill="none" xmlns="http://www.w3.org/2000/svg">
<path d="M494.916 0.882325C453.682 1.07183 414.304 4.5501 379.656 10.6142C277.586 28.4496 259.054 65.7806 259.054 134.625V225.549H500.257V255.856H259.054H168.533C98.4322 255.856 37.0502 297.53 17.8507 376.809C-4.29562 467.681 -5.27793 524.386 17.8507 619.271C34.9963 689.899 75.9424 740.223 146.043 740.223H228.974V631.227C228.974 552.483 297.857 483.025 379.656 483.025H620.578C687.642 483.025 741.18 428.41 741.18 361.794V134.625C741.18 69.972 686.035 21.4046 620.578 10.6142C579.143 3.79208 536.15 0.69282 494.916 0.882325ZM364.475 74.0101C389.39 74.0101 409.736 94.4627 409.736 119.611C409.736 144.669 389.39 164.933 364.475 164.933C339.471 164.933 319.214 144.669 319.214 119.611C319.214 94.4627 339.471 74.0101 364.475 74.0101Z" fill="url(#paint0_linear_14_39)"/>
<path d="M771.26 255.856V361.794C771.26 443.926 700.859 513.054 620.578 513.054H379.656C313.663 513.054 259.054 568.918 259.054 634.285V861.454C259.054 926.107 315.896 964.136 379.656 982.684C456.008 1004.89 529.225 1008.9 620.578 982.684C681.302 965.295 741.18 930.298 741.18 861.454V770.53H500.258V740.223H741.18H861.782C931.882 740.223 958.004 691.86 982.383 619.27C1007.57 544.539 1006.49 472.674 982.383 376.808C965.059 307.785 931.971 255.856 861.782 255.856H771.26ZM635.759 831.146C660.763 831.146 681.02 851.41 681.02 876.468C681.02 901.616 660.763 922.069 635.759 922.069C610.844 922.069 590.498 901.616 590.498 876.468C590.498 851.41 610.844 831.146 635.759 831.146Z" fill="url(#paint1_linear_14_39)"/>
<defs>
<linearGradient id="paint0_linear_14_39" x1="0.870606" y1="0.874146" x2="551.911" y2="475.622" gradientUnits="userSpaceOnUse">
<stop stop-color="#5A9FD4"/>
<stop offset="1" stop-color="#306998"/>
</linearGradient>
<linearGradient id="paint1_linear_14_39" x1="629.963" y1="868.824" x2="433.317" y2="590.222" gradientUnits="userSpaceOnUse">
<stop stop-color="#FFD43B"/>
<stop offset="1" stop-color="#FFE873"/>
</linearGradient>
</defs>
</svg>
