<svg width="1000" height="1000" viewBox="0 0 1000 1000" fill="none" xmlns="http://www.w3.org/2000/svg">
<path fill-rule="evenodd" clip-rule="evenodd" d="M72.1154 240.077C58.8393 240.077 48.0769 250.839 48.0769 264.115V735.269C48.0769 748.545 58.8393 759.308 72.1154 759.308H927.885C941.161 759.308 951.923 748.545 951.923 735.269V264.115C951.923 250.839 941.161 240.077 927.885 240.077H72.1154ZM0 264.115C0 224.287 32.2872 192 72.1154 192H927.885C967.713 192 1000 224.287 1000 264.115V735.269C1000 775.097 967.713 807.385 927.885 807.385H72.1154C32.2872 807.385 0 775.097 0 735.269V264.115Z" fill="white"/>
<path d="M144.231 663.154V336.231H240.385L336.539 456.423L432.693 336.231H528.846V663.154H432.693V475.654L336.539 595.846L240.385 475.654V663.154H144.231ZM745.193 663.154L600.962 504.5H697.116V336.231H793.269V504.5H889.423L745.193 663.154Z" fill="white"/>
</svg>
