<svg width="1000" height="1000" viewBox="0 0 1000 1000" fill="none" xmlns="http://www.w3.org/2000/svg">
<path d="M166.095 869.143L42.8571 138.667L270.762 44.0952L416.286 130.571L549.619 58.6666L827.429 165.333L671.619 957.143L166.095 869.143Z" fill="url(#paint0_linear_35_17)"/>
<path d="M957.143 352.476L839.143 61.0477L625.048 42.8572L294.571 360.381L383.524 769.619L549.619 886.095L957.143 644.286L857.143 456.762L957.143 352.476Z" fill="url(#paint1_linear_35_17)"/>
<path d="M774 309.048L857.143 456.762L957.143 352.476L883.714 170.952L774 309.048Z" fill="url(#paint2_linear_35_17)"/>
<path d="M214.286 214.286H785.714V785.714H214.286V214.286Z" fill="black"/>
<path d="M285.524 677.714H499.81V713.429H285.524V677.714Z" fill="white"/>
<path d="M488.381 285.428L456.476 410.476L420 285.428H383.714L347.143 410.476L315.333 285.428H265.333L326.571 499.809H366.762L401.809 375.714L436.476 499.809H477.143L538.286 285.428H488.381Z" fill="white"/>
<path d="M547.238 469.238L575.143 435.809C592.672 451.997 615.482 461.27 639.333 461.905C658.381 461.905 670.381 454.286 670.381 441.619V441.048C670.381 429.048 662.952 422.952 627.048 413.714C583.714 402.667 555.81 390.667 555.81 348V347.333C555.81 308.381 587.143 282.571 631.048 282.571C660.03 282.059 688.274 291.732 710.857 309.905L686.286 345.524C670.23 332.963 650.73 325.589 630.381 324.381C612.286 324.381 602.762 332.667 602.762 343.429V344.095C602.762 358.19 612.286 363.143 649.143 372.667C692.762 384.095 717.333 399.714 717.333 437.238V437.81C717.333 480.476 684.762 504.476 638.381 504.476C604.807 504.609 572.36 492.369 547.238 470.095" fill="white"/>
<defs>
<linearGradient id="paint0_linear_35_17" x1="370.286" y1="61.9047" x2="606.857" y2="913.714" gradientUnits="userSpaceOnUse">
<stop offset="0.28" stop-color="#07C3F2"/>
<stop offset="0.94" stop-color="#087CFA"/>
</linearGradient>
<linearGradient id="paint1_linear_35_17" x1="444.095" y1="170" x2="844.381" y2="756.952" gradientUnits="userSpaceOnUse">
<stop offset="0.14" stop-color="#FCF84A"/>
<stop offset="0.37" stop-color="#07C3F2"/>
</linearGradient>
<linearGradient id="paint2_linear_35_17" x1="16940" y1="7450.52" x2="19166.2" y2="12502.6" gradientUnits="userSpaceOnUse">
<stop offset="0.28" stop-color="#07C3F2"/>
<stop offset="0.94" stop-color="#087CFA"/>
</linearGradient>
</defs>
</svg>
