<svg width="1000" height="1000" viewBox="0 0 1000 1000" fill="none" xmlns="http://www.w3.org/2000/svg">
<path d="M756.933 44.3691H129.462C87.408 44.3691 53 78.7834 53 120.836V812.819C53 854.869 87.408 889.278 129.462 889.278H542.731C538.04 683.649 608.26 284.586 756.933 44.3691Z" fill="#0F80CC"/>
<path d="M734.138 66.6768H129.462C99.6009 66.6768 75.3013 90.9701 75.3013 120.836V762.333C212.247 709.774 417.787 664.422 559.905 666.482C588.463 517.153 672.398 224.501 734.138 66.6768V66.6768Z" fill="url(#paint0_linear_50_20)"/>
<path d="M903.293 21.7236C860.318 -16.6003 808.287 -1.20614 756.934 44.3695C749.311 51.1404 741.705 58.6523 734.138 66.6765C646.289 159.869 564.746 332.492 539.413 464.325C549.281 484.338 556.99 509.877 562.066 529.385C563.367 534.391 564.542 539.088 565.48 543.085C567.71 552.543 568.908 558.676 568.908 558.676C568.908 558.676 568.12 555.696 564.888 546.324C564.274 544.527 563.588 542.565 562.776 540.255C562.429 539.301 561.948 538.143 561.42 536.905C555.69 523.584 539.838 495.468 532.862 483.226C526.895 500.828 521.622 517.294 517.208 532.191C537.347 569.04 549.62 632.188 549.62 632.188C549.62 632.188 548.556 628.096 543.496 613.812C539.003 601.179 516.625 561.971 511.324 552.805C502.256 586.279 498.653 608.879 501.902 614.382C508.21 625.045 514.218 643.442 519.494 663.788C531.412 709.623 539.696 765.421 539.696 765.421C539.696 765.421 539.964 769.119 540.414 774.809C538.758 813.3 539.752 853.207 542.731 889.279C546.68 937.028 554.113 978.047 563.588 1000L570.02 996.493C556.107 953.242 550.456 896.56 552.931 831.192C556.675 731.275 579.668 610.779 622.154 485.189C693.93 295.603 793.515 143.49 884.659 70.8463C801.587 145.87 689.153 388.717 655.496 478.647C617.81 579.351 591.105 673.854 575.009 764.395C602.779 679.513 692.566 643.027 692.566 643.027C692.566 643.027 736.605 588.715 788.069 511.122C757.241 518.153 706.621 530.189 689.666 537.315C664.655 547.806 657.916 551.385 657.916 551.385C657.916 551.385 738.93 502.049 808.437 479.711C904.026 329.158 1008.17 115.279 903.293 21.7236" fill="#003B57"/>
<defs>
<linearGradient id="paint0_linear_50_20" x1="455.197" y1="80.913" x2="455.197" y2="723.646" gradientUnits="userSpaceOnUse">
<stop stop-color="#97D9F6"/>
<stop offset="0.920245" stop-color="#0F80CC"/>
<stop offset="1" stop-color="#0F80CC"/>
</linearGradient>
</defs>
</svg>
