<svg width="1000" height="1000" viewBox="0 0 1000 1000" fill="none" xmlns="http://www.w3.org/2000/svg">
<path d="M113.804 526.185C113.804 556.735 111.36 566.685 105.076 574.017C98.0814 580.315 89.0011 583.798 79.5889 583.793L82.0328 601.249C96.6249 601.446 110.784 596.292 121.834 586.76C127.78 579.509 132.205 571.136 134.844 562.138C137.483 553.14 138.283 543.703 137.196 534.39V418.826H113.804V525.487V526.185Z" fill="#4E4E4E"/>
<path d="M288.257 512.416C288.257 525.508 288.257 537.205 289.304 547.329H268.53L267.134 526.556C262.789 533.906 256.575 539.974 249.124 544.144C241.673 548.314 233.251 550.437 224.714 550.297C204.464 550.297 180.374 539.299 180.374 494.435V419.895H203.766V489.722C203.766 513.987 211.272 530.222 232.395 530.222C236.741 530.269 241.052 529.447 245.076 527.805C249.1 526.164 252.756 523.735 255.829 520.662C258.902 517.589 261.33 513.934 262.972 509.91C264.613 505.885 265.435 501.574 265.388 497.228V419.022H288.78V511.718L288.257 512.416Z" fill="#4E4E4E"/>
<path d="M332.596 461.425C332.596 445.19 332.596 431.923 331.549 419.877H352.497L353.545 441.698C358.212 433.815 364.931 427.345 372.985 422.98C381.04 418.614 390.128 416.516 399.281 416.91C430.355 416.91 453.747 442.92 453.747 481.674C453.747 527.411 425.641 550.105 395.266 550.105C387.492 550.452 379.76 548.787 372.818 545.27C365.875 541.753 359.958 536.503 355.639 530.03V599.857H332.596V461.948V461.425ZM355.639 495.465C355.703 498.633 356.053 501.788 356.687 504.892C358.668 512.643 363.176 519.513 369.5 524.413C375.823 529.314 383.6 531.966 391.6 531.95C416.215 531.95 430.704 511.875 430.704 482.722C430.704 457.235 417.088 435.414 392.473 435.414C382.733 436.212 373.617 440.535 366.836 447.573C360.055 454.611 356.074 463.881 355.639 473.644V495.465Z" fill="#4E4E4E"/>
<path d="M495.425 419.759L523.531 494.998C526.498 503.377 529.64 513.502 531.735 521.009C534.179 513.328 536.798 503.552 539.94 494.474L565.427 419.759H590.041L555.128 510.534C537.671 554.176 527.022 576.696 510.962 590.312C502.872 597.701 493.01 602.872 482.333 605.325L476.572 585.773C484.038 583.32 490.969 579.47 496.996 574.426C505.513 567.486 512.271 558.634 516.722 548.59C517.675 546.851 518.325 544.962 518.643 543.004C518.444 540.897 517.914 538.835 517.072 536.894L469.589 419.41H495.076L495.425 419.759Z" fill="#4E4E4E"/>
<path d="M652.14 383.138V419.797H685.658V437.254H652.14V506.034C652.14 521.745 656.679 530.823 669.597 530.823C674.185 530.898 678.763 530.37 683.214 529.252L684.261 546.708C677.588 549.02 670.546 550.085 663.487 549.851C658.813 550.143 654.13 549.421 649.761 547.734C645.392 546.046 641.44 543.433 638.175 540.075C631.064 530.564 627.821 518.713 629.098 506.907V437.08H609.197V419.623H629.447V388.55L652.14 383.138Z" fill="#4E4E4E"/>
<path d="M728.748 487.628C728.274 493.549 729.091 499.501 731.143 505.075C733.195 510.648 736.433 515.71 740.632 519.909C744.832 524.109 749.893 527.347 755.467 529.399C761.041 531.451 766.993 532.268 772.913 531.794C784.888 532.062 796.785 529.802 807.827 525.16L811.842 542.617C798.292 548.199 783.722 550.875 769.073 550.473C760.533 551.057 751.968 549.788 743.964 546.751C735.961 543.715 728.71 538.983 722.707 532.881C716.704 526.779 712.092 519.45 709.187 511.398C706.283 503.346 705.154 494.761 705.879 486.232C705.879 447.827 728.748 417.452 766.105 417.452C808.001 417.452 818.476 454.111 818.476 477.503C818.7 481.108 818.7 484.722 818.476 488.327H728.224L728.748 487.628ZM797.178 470.172C797.852 465.504 797.518 460.747 796.197 456.22C794.877 451.693 792.602 447.502 789.525 443.929C786.448 440.355 782.641 437.483 778.36 435.506C774.079 433.528 769.424 432.491 764.709 432.465C755.117 433.159 746.131 437.41 739.511 444.386C732.891 451.361 729.115 460.557 728.922 470.172H797.178Z" fill="#4E4E4E"/>
<path d="M853.968 459.456C853.968 444.444 853.968 431.525 852.921 419.655H873.869V444.618H874.916C877.115 436.913 881.658 430.084 887.915 425.079C894.171 420.074 901.831 417.141 909.83 416.687C912.032 416.398 914.262 416.398 916.464 416.687V438.508C913.796 438.199 911.101 438.199 908.433 438.508C900.509 438.815 892.967 441.996 887.217 447.458C881.467 452.919 877.901 460.287 877.186 468.185C876.533 471.757 876.183 475.377 876.139 479.008V546.915H853.095V459.631L853.968 459.456Z" fill="#4E4E4E"/>
<path d="M843.717 69.1293C844.434 80.857 841.644 92.5325 835.702 102.669C829.759 112.805 820.935 120.943 810.351 126.046C799.768 131.149 787.905 132.986 776.274 131.323C764.642 129.66 753.769 124.573 745.04 116.709C736.31 108.845 730.119 98.5599 727.255 87.1648C724.391 75.7697 724.984 63.7799 728.958 52.723C732.933 41.6662 740.108 32.0425 749.571 25.0781C759.034 18.1137 770.356 14.1238 782.095 13.6167C789.791 13.1932 797.495 14.2953 804.764 16.8596C812.032 19.4239 818.723 23.3999 824.449 28.5589C830.176 33.7179 834.827 39.9581 838.133 46.9207C841.44 53.8832 843.338 61.4309 843.717 69.1293Z" fill="#767677"/>
<path d="M498.533 752.792C341.423 752.792 203.339 696.407 131.94 613.138C159.643 688.048 209.63 752.673 275.172 798.315C340.713 843.957 418.666 868.424 498.533 868.424C578.401 868.424 656.352 843.957 721.895 798.315C787.436 752.673 837.423 688.048 865.127 613.138C793.903 696.407 656.342 752.792 498.533 752.792Z" fill="#F37726"/>
<path d="M498.533 211.316C655.644 211.316 793.729 267.702 865.127 350.97C837.423 276.061 787.436 211.436 721.895 165.794C656.352 120.152 578.401 95.6841 498.533 95.6841C418.666 95.6841 340.713 120.152 275.172 165.794C209.63 211.436 159.643 276.061 131.94 350.97C203.339 267.527 340.725 211.316 498.533 211.316Z" fill="#F37726"/>
<path d="M282.251 914.836C283.172 929.608 279.675 944.32 272.206 957.097C264.736 969.874 253.632 980.139 240.308 986.582C226.983 993.026 212.043 995.357 197.389 993.279C182.735 991.201 169.031 984.808 158.024 974.914C147.017 965.02 139.204 952.073 135.582 937.722C131.959 923.372 132.69 908.268 137.682 894.335C142.675 880.402 151.701 868.27 163.613 859.486C175.525 850.701 189.782 845.662 204.568 845.009C214.254 844.491 223.947 845.887 233.094 849.116C242.241 852.345 250.662 857.344 257.876 863.829C265.09 870.313 270.956 878.156 275.138 886.908C279.32 895.66 281.737 905.15 282.251 914.836Z" fill="#9E9E9E"/>
<path d="M149.796 192.34C141.33 192.574 132.985 190.3 125.808 185.803C118.632 181.306 112.945 174.788 109.463 167.068C105.982 159.347 104.86 150.77 106.241 142.415C107.621 134.059 111.441 126.298 117.22 120.107C122.999 113.917 130.48 109.573 138.722 107.623C146.963 105.673 155.597 106.203 163.538 109.147C171.478 112.091 178.372 117.317 183.35 124.168C188.329 131.019 191.17 139.189 191.518 147.651C191.849 159.093 187.653 170.203 179.842 178.57C172.03 186.937 161.234 191.886 149.796 192.34Z" fill="#616262"/>
</svg>
