<svg width="1000" height="1000" viewBox="0 0 1000 1000" fill="none" xmlns="http://www.w3.org/2000/svg">
<path d="M163.711 40.5746V91.8259H139.127V417.667H163.711V468.71H68.5006V40.5746H163.711ZM835.603 591.826V540.575H930.813V968.71H835.603V917.667H860.603V591.826H835.603Z" fill="#FF0055"/>
<path d="M189.545 92.6592H308.923C332.257 92.6592 352.535 96.1315 369.758 103.076C386.981 110.021 400.245 120.299 409.551 133.91C418.995 147.522 423.718 164.328 423.718 184.328C423.718 201.69 421.009 216.204 415.592 227.871C410.176 239.538 402.606 249.191 392.884 256.83C383.3 264.33 372.119 270.511 359.341 275.372L335.382 288.914H235.171L234.755 232.454H308.923C318.229 232.454 325.937 230.788 332.049 227.454C338.16 224.121 342.743 219.398 345.799 213.287C348.994 207.037 350.591 199.606 350.591 190.995C350.591 182.245 348.994 174.745 345.799 168.494C342.604 162.244 337.882 157.452 331.632 154.119C325.521 150.786 317.951 149.119 308.923 149.119H262.672V396H189.545V92.6592ZM355.591 396L288.506 261.83L366.008 261.413L433.926 392.875V396H355.591ZM573.721 400.167C555.387 400.167 538.998 397.319 524.553 391.625C510.109 385.791 497.886 377.805 487.886 367.666C478.024 357.527 470.455 345.86 465.177 332.665C460.038 319.47 457.468 305.512 457.468 290.789V282.872C457.468 266.344 459.76 251.066 464.344 237.038C468.927 222.871 475.733 210.509 484.761 199.954C493.789 189.398 505.108 181.203 518.72 175.37C532.331 169.397 548.165 166.411 566.221 166.411C582.194 166.411 596.5 168.981 609.139 174.12C621.778 179.259 632.473 186.62 641.223 196.203C650.112 205.787 656.848 217.385 661.432 230.996C666.154 244.607 668.515 259.886 668.515 276.83V305.373H484.344V261.413H599.972V255.997C600.111 248.496 598.791 242.107 596.013 236.829C593.375 231.552 589.486 227.524 584.347 224.746C579.208 221.968 572.957 220.579 565.596 220.579C557.957 220.579 551.637 222.246 546.637 225.579C541.776 228.913 537.956 233.496 535.179 239.329C532.54 245.024 530.665 251.621 529.554 259.122C528.442 266.622 527.887 274.539 527.887 282.872V290.789C527.887 299.123 528.998 306.692 531.22 313.498C533.581 320.304 536.915 326.137 541.22 330.998C545.665 335.721 550.943 339.401 557.054 342.04C563.304 344.679 570.388 345.999 578.305 345.999C587.888 345.999 597.333 344.193 606.639 340.582C615.945 336.971 623.931 330.998 630.598 322.665L662.473 360.582C657.89 367.11 651.362 373.43 642.89 379.541C634.556 385.653 624.556 390.653 612.889 394.542C601.222 398.292 588.166 400.167 573.721 400.167ZM838.728 170.578H902.479V387.25C902.479 408.084 897.688 425.723 888.104 440.168C878.52 454.751 865.117 465.793 847.895 473.294C830.811 480.933 810.81 484.752 787.893 484.752C777.754 484.752 767.407 483.433 756.851 480.794C746.295 478.294 736.434 474.544 727.267 469.543C718.1 464.543 710.391 458.363 704.141 451.001L733.517 409.75C739.211 416.139 746.364 421.556 754.976 426.001C763.587 430.584 773.726 432.876 785.393 432.876C795.532 432.876 804.005 431.07 810.81 427.459C817.755 423.848 823.033 418.57 826.644 411.625C830.255 404.82 832.061 396.556 832.061 386.833V223.912L838.728 170.578ZM688.932 285.997V281.622C688.932 264.538 691.016 248.983 695.183 234.954C699.488 220.787 705.599 208.634 713.516 198.495C721.572 188.217 731.295 180.3 742.684 174.745C754.073 169.189 766.92 166.411 781.226 166.411C796.643 166.411 809.283 169.397 819.144 175.37C829.144 181.203 837.13 189.398 843.103 199.954C849.214 210.509 853.936 222.871 857.27 237.038C860.742 251.066 863.659 266.205 866.02 282.456V287.664C863.659 302.942 860.395 317.387 856.228 330.998C852.2 344.471 846.922 356.416 840.394 366.833C833.867 377.25 825.672 385.444 815.811 391.417C806.088 397.25 794.421 400.167 780.81 400.167C766.643 400.167 753.865 397.319 742.475 391.625C731.225 385.93 721.572 377.944 713.516 367.666C705.599 357.388 699.488 345.304 695.183 331.415C691.016 317.526 688.932 302.387 688.932 285.997ZM759.142 281.622V285.997C759.142 294.47 759.906 302.317 761.434 309.54C763.101 316.762 765.601 323.151 768.934 328.707C772.268 334.123 776.365 338.36 781.226 341.415C786.226 344.471 792.06 345.999 798.727 345.999C808.866 345.999 817.061 343.846 823.311 339.54C829.561 335.235 834.075 329.123 836.853 321.207C839.631 313.29 840.811 303.984 840.394 293.289V276.83C840.672 267.664 840.047 259.608 838.519 252.663C836.992 245.58 834.561 239.677 831.228 234.954C828.033 230.232 823.727 226.69 818.311 224.329C813.033 221.829 806.644 220.579 799.143 220.579C792.615 220.579 786.851 222.107 781.851 225.162C776.851 228.218 772.684 232.524 769.351 238.079C766.018 243.496 763.448 249.955 761.643 257.455C759.976 264.816 759.142 272.872 759.142 281.622ZM277.881 839.749V896H116.21V839.749H277.881ZM142.252 592.659V896H69.1256V592.659H142.252ZM257.047 713.079V767.455H116.21V713.079H257.047ZM278.506 592.659V649.119H116.21V592.659H278.506ZM364.133 670.578L395.8 732.663L428.509 670.578H501.428L442.26 780.372L504.553 896H431.009L395.8 829.332L360.799 896H287.256L349.549 780.372L290.589 670.578H364.133Z" fill="#EFF1F7"/>
<path d="M529.137 863.083C529.137 853.082 532.748 844.749 539.97 838.082C547.193 831.276 556.499 827.873 567.888 827.873C579.416 827.873 588.722 831.276 595.805 838.082C603.028 844.749 606.639 853.082 606.639 863.083C606.639 873.083 603.028 881.486 595.805 888.291C588.722 894.958 579.416 898.292 567.888 898.292C556.499 898.292 547.193 894.958 539.97 888.291C532.748 881.486 529.137 873.083 529.137 863.083ZM659.973 753.497L707.266 696.828L639.556 678.078L653.098 638.702L719.35 665.994L714.35 592.659H758.726L753.309 667.453L818.102 640.785L831.436 680.578L762.684 699.329L808.31 754.538L772.476 779.122L734.142 717.871L695.808 777.039L659.973 753.497Z" fill="#55FF00"/>
</svg>
