<svg width="1000" height="1000" viewBox="0 0 1000 1000" fill="none" xmlns="http://www.w3.org/2000/svg">
<path d="M177.083 0H822.917C920.833 0 1000 81.1966 1000 181.624V818.376C1000 918.803 920.833 1000 822.917 1000H177.083C79.1667 1000 0 918.803 0 818.376V181.624C0 81.1966 79.1667 0 177.083 0Z" fill="#001E36"/>
<path d="M225 695.75V267C225 264.083 226.25 262.417 229.167 262.417C236.25 262.417 242.917 262.417 252.5 262C262.5 261.583 272.917 261.583 284.167 261.167C295.417 260.75 307.5 260.75 320.417 260.333C333.333 259.917 345.833 259.917 358.333 259.917C392.5 259.917 420.833 264.083 444.167 272.833C465 279.917 484.167 291.583 500 307C513.333 320.333 523.75 336.583 530.417 354.5C536.667 372 540 389.917 540 408.667C540 444.5 531.667 474.083 515 497.417C498.333 520.75 475 538.25 447.917 548.25C419.583 558.667 388.333 562.417 354.167 562.417C344.167 562.417 337.5 562.417 333.333 562C329.167 561.583 323.333 561.583 315.417 561.583V695.333C315.833 698.25 313.75 700.75 310.833 701.167C310.417 701.167 310 701.167 309.167 701.167H230C226.667 701.167 225 699.5 225 695.75ZM315.833 342.833V482.833C321.667 483.25 327.083 483.667 332.083 483.667H354.167C370.417 483.667 386.667 481.167 402.083 476.167C415.417 472.417 427.083 464.5 436.25 454.083C445 443.667 449.167 429.5 449.167 411.167C449.583 398.25 446.25 385.333 439.583 374.083C432.5 363.25 422.5 354.917 410.417 350.333C395 344.083 378.333 341.583 361.25 342C350.417 342 340.833 342 332.917 342.417C324.583 342 318.75 342.417 315.833 342.833Z" fill="#31A8FF"/>
<path d="M800 457.417C787.5 450.75 774.167 446.167 760 443.25C744.583 439.917 729.167 437.833 713.333 437.833C705 437.417 696.25 438.667 688.333 440.75C682.917 442 678.333 444.917 675.417 449.083C673.333 452.417 672.083 456.583 672.083 460.333C672.083 464.083 673.75 467.833 676.25 471.167C680 475.75 685 479.5 690.417 482.417C700 487.417 710 492 720 496.167C742.5 503.667 764.167 514.083 784.167 526.583C797.917 535.333 809.167 547 817.083 561.167C823.75 574.5 827.083 589.083 826.667 604.083C827.083 623.667 821.25 643.25 810.417 659.5C798.75 676.167 782.5 689.083 763.75 696.583C743.333 705.333 718.333 709.917 688.333 709.917C669.167 709.917 650.417 708.25 631.667 704.5C617.083 702 602.5 697.417 589.167 691.167C586.25 689.5 584.167 686.583 584.583 683.25V610.75C584.583 609.5 585 607.833 586.25 607C587.5 606.167 588.75 606.583 590 607.417C606.25 617 623.333 623.667 641.667 627.833C657.5 632 674.167 634.083 690.833 634.083C706.667 634.083 717.917 632 725.417 628.25C732.083 625.333 736.667 618.25 736.667 610.75C736.667 604.917 733.333 599.5 726.667 594.083C720 588.667 706.25 582.417 685.833 574.5C664.583 567 645 557 626.667 544.5C613.75 535.333 602.917 523.25 595 509.083C588.333 495.75 585 481.167 585.417 466.583C585.417 448.667 590.417 431.583 599.583 416.167C610 399.5 625.417 386.167 643.333 377.833C662.917 367.833 687.5 363.25 717.083 363.25C734.167 363.25 751.667 364.5 768.75 367C781.25 368.667 793.333 372 804.583 376.583C806.25 377 807.917 378.667 808.75 380.333C809.167 382 809.583 383.667 809.583 385.333V453.25C809.583 454.917 808.75 456.583 807.5 457.417C803.75 458.25 801.667 458.25 800 457.417Z" fill="#31A8FF"/>
</svg>
