<svg width="1000" height="1000" viewBox="0 0 1000 1000" fill="none" xmlns="http://www.w3.org/2000/svg">
<path d="M138.672 898.438L58.5938 0H939.453L859.375 898.438L498.047 1000" fill="#E34F26"/>
<path d="M500 921.875L791.016 841.797L859.375 72.2656H500" fill="#EF652A"/>
<path d="M500 406.25H353.516L343.75 292.969H500V183.594H498.047H222.656L224.609 212.891L251.953 517.578H500V406.25ZM500 693.359H498.047L375 660.156L367.188 572.266H308.594H257.812L271.484 746.094L498.047 808.594H500V693.359Z" fill="#EBEBEB"/>
<path d="M498.047 406.25V517.578H634.766L621.094 660.156L498.047 693.359V808.594L724.609 746.094L726.562 726.562L751.953 435.547L755.859 406.25H724.609H498.047ZM498.047 183.594V251.953V292.969H765.625L767.578 269.531L773.438 212.891L775.391 183.594H498.047Z" fill="white"/>
</svg>
