<svg width="1000" height="1000" viewBox="0 0 1000 1000" fill="none" xmlns="http://www.w3.org/2000/svg">
<path d="M500 588.989C549.225 588.989 589.13 549.084 589.13 499.858C589.13 450.633 549.225 410.728 500 410.728C450.775 410.728 410.87 450.633 410.87 499.858C410.87 549.084 450.775 588.989 500 588.989Z" fill="#61DAFB"/>
<path fill-rule="evenodd" clip-rule="evenodd" d="M73.8902 444.915C52.3764 464.336 43.4783 482.94 43.4783 499.858C43.4783 516.777 52.3764 535.38 73.8902 554.801C95.4016 574.22 127.75 592.704 169.573 608.673C253.069 640.553 369.887 660.728 500 660.728C630.113 660.728 746.931 640.553 830.427 608.673C872.25 592.704 904.598 574.22 926.11 554.801C947.624 535.38 956.522 516.777 956.522 499.858C956.522 482.94 947.624 464.336 926.11 444.915C904.598 425.497 872.25 407.012 830.427 391.044C746.931 359.163 630.113 338.989 500 338.989C369.887 338.989 253.069 359.163 169.573 391.044C127.75 407.012 95.4016 425.497 73.8902 444.915ZM154.064 350.425C243.664 316.214 365.977 295.51 500 295.51C634.023 295.51 756.336 316.214 845.936 350.425C890.661 367.502 928.353 388.367 955.244 412.642C982.133 436.915 1000 466.351 1000 499.858C1000 533.366 982.133 562.801 955.244 587.075C928.353 611.35 890.661 632.214 845.936 649.291C756.336 683.502 634.023 704.206 500 704.206C365.977 704.206 243.664 683.502 154.064 649.291C109.339 632.214 71.6475 611.35 44.7563 587.075C17.8675 562.801 0 533.366 0 499.858C0 466.351 17.8675 436.915 44.7563 412.642C71.6475 388.367 109.339 367.502 154.064 350.425Z" fill="#61DAFB"/>
<path fill-rule="evenodd" clip-rule="evenodd" d="M334.527 103.365C306.951 94.4439 286.391 96.0395 271.739 104.499C257.087 112.958 245.425 129.966 239.363 158.308C233.302 186.647 233.468 223.903 240.55 268.107C254.689 356.358 295.626 467.612 360.683 580.293C425.739 692.974 501.62 784.054 570.977 840.424C605.718 868.659 637.9 887.432 665.473 896.352C693.049 905.273 713.609 903.677 728.261 895.218C742.913 886.758 754.574 869.751 760.637 841.409C766.698 813.07 766.532 775.813 759.45 731.609C745.311 643.359 704.374 532.105 639.317 419.424C574.26 306.742 498.38 215.662 429.023 159.293C394.282 131.057 362.1 112.285 334.527 103.365ZM456.445 125.553C530.872 186.043 609.959 281.617 676.97 397.684C743.982 513.752 787.208 630.03 802.38 724.731C809.954 772.003 810.73 815.077 803.153 850.503C795.576 885.926 779.018 916.117 750 932.871C720.982 949.625 686.556 948.869 652.09 937.719C617.622 926.568 580.707 904.359 543.555 874.164C469.128 813.674 390.041 718.1 323.029 602.032C256.018 485.965 212.792 369.687 197.619 274.985C190.046 227.714 189.269 184.64 196.846 149.214C204.423 113.791 220.982 83.5993 250 66.8456C279.018 50.0919 313.444 50.8477 347.909 61.9976C382.378 73.1484 419.293 95.3578 456.445 125.553Z" fill="#61DAFB"/>
<path fill-rule="evenodd" clip-rule="evenodd" d="M760.637 158.308C754.574 129.966 742.913 112.958 728.261 104.499C713.609 96.0395 693.049 94.4439 665.473 103.365C637.9 112.285 605.718 131.057 570.977 159.293C501.62 215.662 425.739 306.742 360.683 419.423C295.626 532.105 254.689 643.359 240.55 731.609C233.468 775.813 233.302 813.07 239.363 841.409C245.425 869.751 257.087 886.758 271.739 895.218C286.391 903.677 306.951 905.273 334.527 896.352C362.1 887.431 394.282 868.659 429.023 840.424C498.38 784.054 574.26 692.974 639.317 580.293C704.374 467.612 745.311 356.358 759.45 268.107C766.532 223.903 766.698 186.647 760.637 158.308ZM802.38 274.985C787.208 369.687 743.982 485.965 676.97 602.032C609.959 718.099 530.872 813.674 456.445 874.164C419.293 904.359 382.378 926.568 347.909 937.719C313.444 948.869 279.018 949.625 250 932.871C220.982 916.117 204.423 885.926 196.846 850.503C189.269 815.077 190.046 772.003 197.619 724.731C212.792 630.03 256.018 513.752 323.029 397.684C390.041 281.617 469.128 186.043 543.555 125.553C580.707 95.3578 617.622 73.1483 652.09 61.9975C686.556 50.8476 720.982 50.0919 750 66.8455C779.018 83.5992 795.576 113.791 803.153 149.214C810.731 184.64 809.954 227.714 802.38 274.985Z" fill="#61DAFB"/>
</svg>
