<svg width="1000" height="1000" viewBox="0 0 1000 1000" fill="none" xmlns="http://www.w3.org/2000/svg">
<path d="M656 654C685 651 707 626 706 596C705 566 680 542 650 542H648C617 543 593 569 594 600C595 615 601 628 610 637C576 704 524 753 446 794C393 822 338 832 283 825C238 819 203 799 181 766C149 717 146 664 173 611C192 573 222 545 241 531C237 518 231 496 228 480C83.0001 585 98.0001 727 142 794C175 844 242 875 316 875C336 875 356 873 376 868C504 843 601 767 656 654V654Z" fill="#764ABC"/>
<path d="M832 530C756 441 644 392 516 392H500C491 374 472 362 451 362H449C418 363 394 389 395 420C396 450 421 474 451 474H453C475 473 494 459 502 440H520C596 440 668 462 733 505C783 538 819 581 839 633C856 675 855 716 837 751C809 804 762 833 700 833C660 833 622 821 602 812C591 822 571 838 557 848C600 868 644 879 686 879C782 879 853 826 880 773C909 715 907 615 832 530Z" fill="#764ABC"/>
<path d="M324 671C325 701 350 725 380 725H382C413 724 437 698 436 667C435 637 410 613 380 613H378C376 613 373 613 371 614C330 546 313 472 319 392C323 332 343 280 378 237C407 200 463 182 501 181C607 179 652 311 655 364C668 367 690 374 705 379C693 217 593 133 497 133C407 133 324 198 291 294C245 422 275 545 331 642C326 649 323 660 324 671V671Z" fill="#764ABC"/>
</svg>
