<svg width="1000" height="1000" viewBox="0 0 1000 1000" fill="none" xmlns="http://www.w3.org/2000/svg">
<g clip-path="url(#clip0_23_36)">
<path d="M692.895 688.336C729.798 684.519 757.794 652.705 756.522 614.529C755.249 576.353 723.436 545.812 685.259 545.812H682.714C643.265 547.084 612.724 580.17 613.997 619.619C615.269 638.707 622.905 655.25 634.358 666.703C591.091 751.963 524.919 814.318 425.661 866.492C358.216 902.123 288.226 914.849 218.236 905.941C160.972 898.306 116.433 872.855 88.4369 830.861C47.7156 768.506 43.8979 701.062 78.2566 633.617C102.435 585.26 140.611 549.629 164.789 531.814C159.699 515.271 152.064 487.275 148.246 466.914C-36.2723 600.531 -17.1841 781.232 38.8078 866.492C80.8017 930.119 166.062 969.568 260.23 969.568C285.681 969.568 311.132 967.023 336.583 960.66C499.468 928.847 622.905 832.134 692.895 688.336V688.336Z" fill="#764ABC"/>
<path d="M916.862 530.541C820.149 417.285 677.624 354.93 514.739 354.93H494.378C482.925 332.024 458.747 316.754 432.023 316.754H429.478C390.03 318.026 359.488 351.113 360.761 390.561C362.034 428.738 393.847 459.279 432.023 459.279H434.568C462.564 458.006 486.743 440.191 496.923 416.012H519.829C616.542 416.012 708.165 444.008 790.88 498.727C854.508 540.721 900.319 595.441 925.77 661.613C947.403 715.06 946.131 767.234 923.225 811.773C887.594 879.218 827.784 916.121 748.886 916.121C697.985 916.121 649.628 900.851 624.177 889.398C610.179 902.123 584.728 922.484 566.913 935.21C621.632 960.66 677.624 974.658 731.071 974.658C853.235 974.658 943.585 907.214 977.944 839.769C1014.85 765.961 1012.3 638.707 916.862 530.541Z" fill="#764ABC"/>
<path d="M270.41 709.969C271.683 748.146 303.497 778.687 341.673 778.687H344.218C383.667 777.414 414.208 744.328 412.935 704.879C411.663 666.703 379.849 636.162 341.673 636.162H339.128C336.583 636.162 332.765 636.162 330.22 637.435C278.046 550.902 256.412 456.734 264.048 354.93C269.138 278.578 294.589 212.405 339.128 157.686C376.031 110.602 447.294 87.6963 495.65 86.4237C630.54 83.8786 687.804 251.854 691.622 319.299C708.165 323.117 736.161 332.024 755.249 338.387C739.979 132.235 612.724 25.3417 490.56 25.3417C376.031 25.3417 270.41 108.057 228.417 230.221C169.88 393.106 208.056 549.629 279.318 673.066C272.956 681.974 269.138 695.971 270.41 709.969V709.969Z" fill="#764ABC"/>
</g>
<defs>
<clipPath id="clip0_23_36">
<rect width="1000" height="1000" fill="white"/>
</clipPath>
</defs>
</svg>
