<svg width="1000" height="1000" viewBox="0 0 1000 1000" fill="none" xmlns="http://www.w3.org/2000/svg">
<g clip-path="url(#clip0_33_4)">
<path d="M981.125 455.469L544.531 18.875C538.553 12.8939 531.455 8.14918 523.643 4.91205C515.83 1.67491 507.457 0.0087453 499 0.0087453C490.544 0.0087453 482.17 1.67491 474.357 4.91205C466.545 8.14918 459.447 12.8939 453.469 18.875L362.844 109.5L477.844 224.5C504.594 215.125 535.219 221.531 556.531 242.844C566.677 253.007 573.759 265.819 576.969 279.816C580.18 293.813 579.389 308.431 574.688 322L685.531 432.844C712.344 423.594 743.281 429.563 764.688 451.031C771.804 458.149 777.448 466.599 781.298 475.899C785.149 485.198 787.13 495.165 787.128 505.23C787.127 515.295 785.143 525.261 781.29 534.559C777.437 543.858 771.79 552.306 764.672 559.422C757.554 566.538 749.104 572.182 739.805 576.033C730.505 579.883 720.538 581.864 710.473 581.863C700.408 581.861 690.442 579.877 681.144 576.024C671.846 572.171 663.397 566.524 656.281 559.406C633.781 536.906 628.219 503.781 639.594 476.063L536.219 372.688V644.719C543.723 648.432 550.581 653.328 556.531 659.219C563.647 666.335 569.292 674.783 573.143 684.08C576.994 693.378 578.977 703.343 578.977 713.406C578.977 723.47 576.994 733.435 573.143 742.732C569.292 752.03 563.647 760.478 556.531 767.594C549.415 774.71 540.967 780.354 531.67 784.206C522.372 788.057 512.407 790.039 502.344 790.039C492.28 790.039 482.315 788.057 473.018 784.206C463.72 780.354 455.272 774.71 448.156 767.594C441.032 760.482 435.38 752.036 431.523 742.738C427.667 733.44 425.682 723.472 425.682 713.406C425.682 703.34 427.667 693.373 431.523 684.075C435.38 674.777 441.032 666.33 448.156 659.219C455.563 651.844 463.781 646.25 473.25 642.5V367.938C464.125 364.188 455.563 358.656 448.156 351.219C437.396 340.472 430.08 326.763 427.142 311.842C424.203 296.921 425.775 281.462 431.656 267.438L318.219 154.063L18.8438 453.125C12.858 459.104 8.10935 466.204 4.86945 474.019C1.62954 481.834 -0.0380859 490.212 -0.0380859 498.672C-0.0380859 507.132 1.62954 515.509 4.86945 523.325C8.10935 531.14 12.858 538.24 18.8438 544.219L455.469 980.781C461.447 986.762 468.545 991.507 476.357 994.744C484.17 997.981 492.544 999.648 501 999.648C509.457 999.648 517.83 997.981 525.643 994.744C533.455 991.507 540.553 986.762 546.531 980.781L981.125 546.875C987.111 540.896 991.86 533.796 995.099 525.981C998.339 518.166 1000.01 509.788 1000.01 501.328C1000.01 492.868 998.339 484.491 995.099 476.675C991.86 468.86 987.111 461.76 981.125 455.781" fill="#F03C2E"/>
</g>
<defs>
<clipPath id="clip0_33_4">
<rect width="1000" height="1000" fill="white"/>
</clipPath>
</defs>
</svg>
