<svg width="1000" height="1000" viewBox="0 0 1000 1000" fill="none" xmlns="http://www.w3.org/2000/svg">
<path d="M1000 0H0V1000H1000V0Z" fill="#F7DF1E"/>
<path d="M671.746 781.254C691.889 814.143 718.095 838.317 764.444 838.317C803.381 838.317 828.254 818.857 828.254 791.968C828.254 759.746 802.698 748.333 759.841 729.587L736.349 719.508C668.54 690.619 623.492 654.429 623.492 577.921C623.492 507.444 677.19 453.794 761.111 453.794C820.857 453.794 863.81 474.587 894.762 529.032L821.587 576.016C805.476 547.127 788.095 535.746 761.111 535.746C733.587 535.746 716.143 553.206 716.143 576.016C716.143 604.206 733.603 615.619 773.921 633.079L797.413 643.143C877.254 677.381 922.333 712.286 922.333 790.762C922.333 875.365 855.873 921.714 766.619 921.714C679.349 921.714 622.968 880.127 595.381 825.619L671.746 781.254ZM339.794 789.397C354.556 815.587 367.984 837.73 400.27 837.73C431.143 837.73 450.619 825.651 450.619 778.683V459.159H544.587V779.952C544.587 877.254 487.54 921.54 404.27 921.54C329.032 921.54 285.46 882.603 263.302 835.706L339.794 789.397Z" fill="black"/>
</svg>
